<svg id="svg" version="1.1" xmlns="http://www.w3.org/2000/svg" xmlns:xlink="http://www.w3.org/1999/xlink" width="400" height="400" viewBox="0, 0, 400,400"><g id="svgg"><path id="path0" d="M312.999 128.310 C 303.233 130.492,292.010 137.868,281.720 148.868 C 275.848 155.146,275.850 156.132,281.750 160.094 C 296.786 170.190,299.900 175.977,293.383 181.712 C 248.344 221.350,228.908 228.749,167.250 229.726 C 134.497 230.245,131.688 229.950,138.500 226.701 C 144.133 224.015,139.715 218.952,133.804 221.320 C 133.087 221.607,133.850 221.885,135.500 221.936 C 139.599 222.065,141.541 223.320,139.797 224.713 C 134.635 228.839,132.548 229.122,112.201 228.464 C 65.354 226.948,28.621 244.992,62.170 253.041 C 66.408 254.057,106.422 242.089,104.664 240.331 C 104.474 240.140,95.741 242.958,85.258 246.592 L 66.198 253.199 60.756 251.618 C 50.029 248.499,47.045 243.548,53.812 240.096 C 61.180 236.337,79.280 231.251,91.434 229.523 C 96.963 228.738,128.171 229.906,127.584 230.877 C 126.897 232.014,174.342 232.136,190.854 231.040 C 221.646 228.996,235.838 224.925,255.595 212.468 C 262.143 208.340,268.400 204.408,269.500 203.731 C 270.600 203.054,271.725 202.225,272.000 201.889 C 272.275 201.552,277.000 197.655,282.500 193.228 C 288.000 188.801,293.850 184.030,295.500 182.625 C 299.468 179.248,299.583 179.287,300.881 184.443 C 308.373 214.195,275.396 263.038,243.201 269.875 C 235.457 271.519,220.672 271.307,216.322 269.490 C 211.968 267.671,212.234 267.251,223.451 258.227 C 248.687 237.926,272.000 214.620,272.000 209.694 C 272.000 209.097,270.721 210.609,269.157 213.054 C 263.229 222.326,249.855 235.055,222.652 257.316 C 211.127 266.748,210.262 268.396,215.512 270.923 C 220.205 273.181,239.749 272.663,248.123 270.058 C 280.587 259.960,310.558 212.169,302.673 183.076 L 301.203 177.653 308.950 170.365 C 336.245 144.688,338.368 122.644,312.999 128.310 M323.943 129.639 C 334.365 131.723,328.275 147.655,309.949 166.250 C 300.026 176.318,300.445 176.178,296.500 170.748 C 293.857 167.109,287.928 161.857,280.882 156.911 L 278.618 155.323 283.536 150.065 C 293.711 139.188,306.239 131.325,316.000 129.691 C 320.228 128.983,320.652 128.980,323.943 129.639 M191.500 152.879 C 162.761 158.172,119.411 177.955,108.961 190.547 C 108.204 191.459,111.391 189.473,116.042 186.133 C 161.169 153.736,213.467 144.263,262.288 159.644 C 299.811 171.465,288.532 180.983,223.347 192.504 C 165.951 202.648,100.300 213.886,88.286 215.623 C 73.484 217.763,71.795 219.047,84.050 218.843 C 92.061 218.710,92.739 218.581,88.500 218.000 C 85.707 217.617,84.711 217.245,86.243 217.157 C 88.735 217.014,172.704 203.020,231.000 193.032 C 269.267 186.475,284.000 180.693,284.000 172.233 C 284.000 158.336,226.824 146.373,191.500 152.879 M101.250 219.739 C 104.412 219.937,109.587 219.937,112.750 219.739 C 115.912 219.541,113.325 219.378,107.000 219.378 C 100.675 219.378,98.087 219.541,101.250 219.739 M123.250 220.716 C 124.763 220.945,127.237 220.945,128.750 220.716 C 130.262 220.487,129.025 220.300,126.000 220.300 C 122.975 220.300,121.737 220.487,123.250 220.716 M112.729 236.723 C 109.005 238.136,106.135 239.469,106.352 239.685 C 106.754 240.087,120.009 235.325,120.862 234.471 C 121.802 233.531,119.367 234.206,112.729 236.723 " stroke="none" fill="#000000" fill-rule="evenodd"></path></g></svg>
